<mxfile host="app.diagrams.net" modified="2023-08-01T17:05:12.060Z" agent="Mozilla/5.0 (X11; Linux x86_64; rv:108.0) Gecko/20100101 Firefox/108.0" etag="Ueo-mxhiKyZHdLT51mxX" version="21.6.6" type="device">
  <diagram name="Page-1" id="f5A6CDPiya6YqWZAvQuT">
    <mxGraphModel dx="954" dy="-657" grid="1" gridSize="10" guides="1" tooltips="1" connect="1" arrows="1" fold="1" page="1" pageScale="1" pageWidth="827" pageHeight="1169" math="0" shadow="0">
      <root>
        <mxCell id="0" />
        <mxCell id="1" parent="0" />
        <mxCell id="3oUJ_5gLEvu6R0pSqBkJ-33" value="LOOP" style="shape=umlFrame;tabWidth=110;tabHeight=30;tabPosition=left;html=1;boundedLbl=1;labelInHeader=1;width=40;height=20;swimlaneFillColor=#E6E6E6;fillColor=#f5f5f5;strokeColor=#666666;fillOpacity=60;fontColor=#333333;" parent="1" vertex="1">
          <mxGeometry x="165" y="1805" width="470" height="805" as="geometry" />
        </mxCell>
        <mxCell id="3oUJ_5gLEvu6R0pSqBkJ-21" value="LOOP" style="shape=umlFrame;tabWidth=110;tabHeight=30;tabPosition=left;html=1;boundedLbl=1;labelInHeader=1;width=40;height=20;swimlaneFillColor=#E6E6E6;fillColor=#f5f5f5;strokeColor=#666666;fillOpacity=60;fontColor=#333333;" parent="1" vertex="1">
          <mxGeometry x="190" y="2112.5" width="430" height="447.5" as="geometry" />
        </mxCell>
        <mxCell id="3oUJ_5gLEvu6R0pSqBkJ-22" value="OPT" style="shape=umlFrame;tabWidth=110;tabHeight=30;tabPosition=left;html=1;boundedLbl=1;labelInHeader=1;width=40;height=20;swimlaneFillColor=#E6E6E6;fillColor=#f5f5f5;strokeColor=#666666;fillOpacity=60;fontColor=#333333;" parent="1" vertex="1">
          <mxGeometry x="200" y="2142.5" width="390" height="90" as="geometry" />
        </mxCell>
        <mxCell id="3oUJ_5gLEvu6R0pSqBkJ-23" value="4.consultaTabelloneTurni()" style="html=1;verticalAlign=bottom;endArrow=block;edgeStyle=elbowEdgeStyle;elbow=vertical;curved=0;rounded=0;labelBackgroundColor=none;fillColor=#f5f5f5;strokeColor=#666666;" parent="1" edge="1">
          <mxGeometry relative="1" as="geometry">
            <mxPoint x="252" y="2182.5" as="sourcePoint" />
            <Array as="points" />
            <mxPoint x="539.5" y="2182.5" as="targetPoint" />
          </mxGeometry>
        </mxCell>
        <mxCell id="3oUJ_5gLEvu6R0pSqBkJ-24" value="tabellone turni" style="html=1;verticalAlign=bottom;endArrow=open;edgeStyle=elbowEdgeStyle;elbow=vertical;curved=0;rounded=0;labelBackgroundColor=none;endFill=0;dashed=1;fillColor=#f5f5f5;strokeColor=#666666;" parent="1" edge="1">
          <mxGeometry relative="1" as="geometry">
            <mxPoint x="542.5" y="2212.4999999999995" as="sourcePoint" />
            <mxPoint x="252" y="2212.5" as="targetPoint" />
          </mxGeometry>
        </mxCell>
        <mxCell id="3oUJ_5gLEvu6R0pSqBkJ-1" value="LOOP" style="shape=umlFrame;tabWidth=110;tabHeight=30;tabPosition=left;html=1;boundedLbl=1;labelInHeader=1;width=40;height=20;swimlaneFillColor=#E6E6E6;fillColor=#f5f5f5;strokeColor=#666666;fillOpacity=60;fontColor=#333333;" parent="1" vertex="1">
          <mxGeometry x="205" y="1430" width="390" height="650" as="geometry" />
        </mxCell>
        <mxCell id="3oUJ_5gLEvu6R0pSqBkJ-27" value="OPT" style="shape=umlFrame;tabWidth=110;tabHeight=30;tabPosition=left;html=1;boundedLbl=1;labelInHeader=1;width=40;height=20;swimlaneFillColor=#E6E6E6;fillColor=#f5f5f5;strokeColor=#666666;fillOpacity=60;fontColor=#333333;" parent="1" vertex="1">
          <mxGeometry x="200" y="2240" width="390" height="90" as="geometry" />
        </mxCell>
        <mxCell id="3oUJ_5gLEvu6R0pSqBkJ-9" value="LOOP" style="shape=umlFrame;tabWidth=110;tabHeight=30;tabPosition=left;html=1;boundedLbl=1;labelInHeader=1;width=40;height=20;swimlaneFillColor=#E6E6E6;fillColor=#f5f5f5;strokeColor=#666666;fillOpacity=60;fontColor=#333333;" parent="1" vertex="1">
          <mxGeometry x="220" y="1812.5" width="370" height="140" as="geometry" />
        </mxCell>
        <mxCell id="3oUJ_5gLEvu6R0pSqBkJ-13" value="OPT" style="shape=umlFrame;tabWidth=110;tabHeight=30;tabPosition=left;html=1;boundedLbl=1;labelInHeader=1;width=40;height=20;swimlaneFillColor=#E6E6E6;fillColor=#f5f5f5;strokeColor=#666666;fillOpacity=60;fontColor=#333333;container=1;" parent="1" vertex="1">
          <mxGeometry x="225" y="1962.5" width="350" height="90" as="geometry" />
        </mxCell>
        <mxCell id="3oUJ_5gLEvu6R0pSqBkJ-18" value="foglio riepilogativo ordinato" style="html=1;verticalAlign=bottom;endArrow=open;edgeStyle=elbowEdgeStyle;elbow=vertical;curved=0;rounded=0;labelBackgroundColor=none;endFill=0;dashed=1;fillColor=#f5f5f5;strokeColor=#666666;" parent="3oUJ_5gLEvu6R0pSqBkJ-13" edge="1">
          <mxGeometry x="0.002" relative="1" as="geometry">
            <mxPoint x="315.5" y="70.00041666666675" as="sourcePoint" />
            <mxPoint x="25" y="70.06999999999994" as="targetPoint" />
            <mxPoint as="offset" />
          </mxGeometry>
        </mxCell>
        <mxCell id="3oUJ_5gLEvu6R0pSqBkJ-10" value="OPT" style="shape=umlFrame;tabWidth=110;tabHeight=30;tabPosition=left;html=1;boundedLbl=1;labelInHeader=1;width=40;height=20;swimlaneFillColor=#E6E6E6;fillColor=#f5f5f5;strokeColor=#666666;fillOpacity=60;fontColor=#333333;" parent="1" vertex="1">
          <mxGeometry x="225" y="1842.5" width="350" height="90" as="geometry" />
        </mxCell>
        <mxCell id="3oUJ_5gLEvu6R0pSqBkJ-11" value="2.aggiungeCompito(mansione, compitoPrec?)" style="html=1;verticalAlign=bottom;endArrow=block;edgeStyle=elbowEdgeStyle;elbow=vertical;curved=0;rounded=0;labelBackgroundColor=none;fillColor=#f5f5f5;strokeColor=#666666;" parent="1" edge="1">
          <mxGeometry relative="1" as="geometry">
            <mxPoint x="255" y="1881.5" as="sourcePoint" />
            <Array as="points" />
            <mxPoint x="540" y="1881.91" as="targetPoint" />
          </mxGeometry>
        </mxCell>
        <mxCell id="3oUJ_5gLEvu6R0pSqBkJ-12" value="foglio riepilogativo aggiornato" style="html=1;verticalAlign=bottom;endArrow=open;edgeStyle=elbowEdgeStyle;elbow=vertical;curved=0;rounded=0;labelBackgroundColor=none;endFill=0;dashed=1;fillColor=#f5f5f5;strokeColor=#666666;" parent="1" edge="1">
          <mxGeometry relative="1" as="geometry">
            <mxPoint x="537" y="1912.5" as="sourcePoint" />
            <mxPoint x="252" y="1912.5" as="targetPoint" />
          </mxGeometry>
        </mxCell>
        <mxCell id="3oUJ_5gLEvu6R0pSqBkJ-16" value="3.ordinaFoglioRiepilogativo(criterioOrdinamento)" style="html=1;verticalAlign=bottom;endArrow=block;edgeStyle=elbowEdgeStyle;elbow=vertical;curved=0;rounded=0;labelBackgroundColor=none;fillColor=#f5f5f5;strokeColor=#666666;" parent="1" edge="1">
          <mxGeometry relative="1" as="geometry">
            <mxPoint x="255" y="2000.4166666666667" as="sourcePoint" />
            <Array as="points">
              <mxPoint x="350.5" y="2000.63875" />
            </Array>
            <mxPoint x="540" y="2000.6387499999998" as="targetPoint" />
          </mxGeometry>
        </mxCell>
        <mxCell id="3oUJ_5gLEvu6R0pSqBkJ-34" value="OPT" style="shape=umlFrame;tabWidth=110;tabHeight=30;tabPosition=left;html=1;boundedLbl=1;labelInHeader=1;width=40;height=20;swimlaneFillColor=#E6E6E6;fillColor=#f5f5f5;strokeColor=#666666;fillOpacity=60;fontColor=#333333;" parent="1" vertex="1">
          <mxGeometry x="200" y="2340" width="390" height="90" as="geometry" />
        </mxCell>
        <mxCell id="3oUJ_5gLEvu6R0pSqBkJ-25" value="5.assegnaCompito(compito, turno, cuoco?)" style="html=1;verticalAlign=bottom;endArrow=block;edgeStyle=elbowEdgeStyle;elbow=vertical;curved=0;rounded=0;labelBackgroundColor=none;fillColor=#f5f5f5;strokeColor=#666666;" parent="1" edge="1">
          <mxGeometry relative="1" as="geometry">
            <mxPoint x="250" y="2272.5" as="sourcePoint" />
            <Array as="points">
              <mxPoint x="355.5" y="2272.91" />
            </Array>
            <mxPoint x="545" y="2272.9099999999994" as="targetPoint" />
          </mxGeometry>
        </mxCell>
        <mxCell id="3oUJ_5gLEvu6R0pSqBkJ-26" value="foglio aggiornato" style="html=1;verticalAlign=bottom;endArrow=open;edgeStyle=elbowEdgeStyle;elbow=vertical;curved=0;rounded=0;labelBackgroundColor=none;endFill=0;dashed=1;fillColor=#f5f5f5;strokeColor=#666666;" parent="1" edge="1">
          <mxGeometry relative="1" as="geometry">
            <mxPoint x="545" y="2302.4999999999995" as="sourcePoint" />
            <mxPoint x="250" y="2302.5" as="targetPoint" />
            <Array as="points" />
          </mxGeometry>
        </mxCell>
        <mxCell id="3oUJ_5gLEvu6R0pSqBkJ-37" value="ALT" style="shape=umlFrame;whiteSpace=wrap;html=1;fontColor=#FFA89E;swimlaneFillColor=#FFE6CC;fillColor=#ffe6cc;strokeColor=#d79b00;fillOpacity=60;" parent="1" vertex="1">
          <mxGeometry x="230" y="1460" width="340" height="180" as="geometry" />
        </mxCell>
        <mxCell id="3oUJ_5gLEvu6R0pSqBkJ-38" value="" style="shape=umlFrame;whiteSpace=wrap;html=1;fontColor=#FFA89E;swimlaneFillColor=#FFE6CC;fillColor=#ffe6cc;strokeColor=#d79b00;fillOpacity=60;width=10;height=15;" parent="1" vertex="1">
          <mxGeometry x="230" y="1640" width="340" height="160" as="geometry" />
        </mxCell>
        <mxCell id="3oUJ_5gLEvu6R0pSqBkJ-40" value="1.generaFoglioRiepilogativo(servizio)" style="html=1;verticalAlign=bottom;endArrow=block;edgeStyle=elbowEdgeStyle;elbow=vertical;curved=0;rounded=0;labelBackgroundColor=none;" parent="1" edge="1">
          <mxGeometry x="-0.0028" relative="1" as="geometry">
            <mxPoint x="253.75" y="1504" as="sourcePoint" />
            <Array as="points" />
            <mxPoint x="540" y="1504" as="targetPoint" />
            <mxPoint as="offset" />
          </mxGeometry>
        </mxCell>
        <mxCell id="3oUJ_5gLEvu6R0pSqBkJ-41" value="1a.1caricaFoglioEsistente(servizio)" style="html=1;verticalAlign=bottom;endArrow=block;edgeStyle=elbowEdgeStyle;elbow=vertical;curved=0;rounded=0;labelBackgroundColor=none;" parent="1" edge="1">
          <mxGeometry relative="1" as="geometry">
            <mxPoint x="255" y="1670" as="sourcePoint" />
            <Array as="points">
              <mxPoint x="345.5" y="1670" />
            </Array>
            <mxPoint x="540" y="1670" as="targetPoint" />
          </mxGeometry>
        </mxCell>
        <mxCell id="3oUJ_5gLEvu6R0pSqBkJ-46" value="" style="group" parent="1" vertex="1" connectable="0">
          <mxGeometry x="240" y="1520" width="320" height="110" as="geometry" />
        </mxCell>
        <mxCell id="3oUJ_5gLEvu6R0pSqBkJ-43" value="ALT" style="shape=umlFrame;whiteSpace=wrap;html=1;swimlaneFillColor=#FF9999;fillColor=#f8cecc;strokeColor=#FF3333;fillOpacity=60;fontColor=#FF0000;" parent="3oUJ_5gLEvu6R0pSqBkJ-46" vertex="1">
          <mxGeometry width="320" height="60" as="geometry" />
        </mxCell>
        <mxCell id="3oUJ_5gLEvu6R0pSqBkJ-39" value="foglio riepilogativo" style="html=1;verticalAlign=bottom;endArrow=block;edgeStyle=elbowEdgeStyle;elbow=vertical;curved=0;rounded=0;labelBackgroundColor=none;dashed=1;" parent="3oUJ_5gLEvu6R0pSqBkJ-46" edge="1">
          <mxGeometry relative="1" as="geometry">
            <mxPoint x="300" y="40" as="sourcePoint" />
            <mxPoint x="10" y="40.14000000000033" as="targetPoint" />
          </mxGeometry>
        </mxCell>
        <mxCell id="3oUJ_5gLEvu6R0pSqBkJ-44" value="" style="shape=umlFrame;whiteSpace=wrap;html=1;swimlaneFillColor=#FF9999;fillColor=#f8cecc;strokeColor=#FF3333;fillOpacity=60;fontColor=#FF0000;width=10;height=15;" parent="3oUJ_5gLEvu6R0pSqBkJ-46" vertex="1">
          <mxGeometry y="60" width="320" height="50" as="geometry" />
        </mxCell>
        <mxCell id="3oUJ_5gLEvu6R0pSqBkJ-45" value="1.1a.1 foglio riepilogativo già esistente" style="html=1;verticalAlign=bottom;endArrow=open;edgeStyle=elbowEdgeStyle;elbow=vertical;curved=0;rounded=0;labelBackgroundColor=none;dashed=1;strokeColor=#FF0000;fontColor=#FF0000;endFill=0;" parent="3oUJ_5gLEvu6R0pSqBkJ-46" edge="1">
          <mxGeometry relative="1" as="geometry">
            <mxPoint x="300" y="84.5" as="sourcePoint" />
            <mxPoint x="10" y="84.64000000000033" as="targetPoint" />
          </mxGeometry>
        </mxCell>
        <mxCell id="3oUJ_5gLEvu6R0pSqBkJ-52" value="" style="shape=umlDestroy;whiteSpace=wrap;html=1;strokeWidth=3;targetShapes=umlLifeline;" parent="3oUJ_5gLEvu6R0pSqBkJ-46" vertex="1">
          <mxGeometry x="290" y="75" width="20" height="20" as="geometry" />
        </mxCell>
        <mxCell id="3oUJ_5gLEvu6R0pSqBkJ-47" value="" style="group" parent="1" vertex="1" connectable="0">
          <mxGeometry x="240" y="1680" width="320" height="110" as="geometry" />
        </mxCell>
        <mxCell id="3oUJ_5gLEvu6R0pSqBkJ-48" value="ALT" style="shape=umlFrame;whiteSpace=wrap;html=1;swimlaneFillColor=#FF9999;fillColor=#f8cecc;strokeColor=#FF3333;fillOpacity=60;fontColor=#FF0000;" parent="3oUJ_5gLEvu6R0pSqBkJ-47" vertex="1">
          <mxGeometry width="320" height="60" as="geometry" />
        </mxCell>
        <mxCell id="3oUJ_5gLEvu6R0pSqBkJ-49" value="foglio riepilogativo esistente" style="html=1;verticalAlign=bottom;endArrow=block;edgeStyle=elbowEdgeStyle;elbow=vertical;curved=0;rounded=0;labelBackgroundColor=none;dashed=1;" parent="3oUJ_5gLEvu6R0pSqBkJ-47" edge="1">
          <mxGeometry relative="1" as="geometry">
            <mxPoint x="300" y="40" as="sourcePoint" />
            <mxPoint x="10" y="40.14000000000033" as="targetPoint" />
          </mxGeometry>
        </mxCell>
        <mxCell id="3oUJ_5gLEvu6R0pSqBkJ-50" value="" style="shape=umlFrame;whiteSpace=wrap;html=1;swimlaneFillColor=#FF9999;fillColor=#f8cecc;strokeColor=#FF3333;fillOpacity=60;fontColor=#FF0000;width=10;height=15;" parent="3oUJ_5gLEvu6R0pSqBkJ-47" vertex="1">
          <mxGeometry y="60" width="320" height="50" as="geometry" />
        </mxCell>
        <mxCell id="3oUJ_5gLEvu6R0pSqBkJ-51" value="1a.1a.1 foglio riepilogativo inesistente" style="html=1;verticalAlign=bottom;endArrow=open;edgeStyle=elbowEdgeStyle;elbow=vertical;curved=0;rounded=0;labelBackgroundColor=none;dashed=1;strokeColor=#FF0000;fontColor=#FF0000;endFill=0;" parent="3oUJ_5gLEvu6R0pSqBkJ-47" edge="1">
          <mxGeometry relative="1" as="geometry">
            <mxPoint x="300" y="84.5" as="sourcePoint" />
            <mxPoint x="10" y="84.64000000000033" as="targetPoint" />
          </mxGeometry>
        </mxCell>
        <mxCell id="3oUJ_5gLEvu6R0pSqBkJ-58" value="" style="shape=umlDestroy;whiteSpace=wrap;html=1;strokeWidth=3;targetShapes=umlLifeline;" parent="3oUJ_5gLEvu6R0pSqBkJ-47" vertex="1">
          <mxGeometry x="285" y="75" width="25" height="20" as="geometry" />
        </mxCell>
        <mxCell id="3oUJ_5gLEvu6R0pSqBkJ-28" value="6.modificaDettagliCompito(compito, stimaTempo?,quantità?, daPreparare?)" style="html=1;verticalAlign=bottom;endArrow=block;edgeStyle=elbowEdgeStyle;elbow=horizontal;curved=0;rounded=0;labelBackgroundColor=none;fillColor=#f5f5f5;strokeColor=#666666;" parent="1" edge="1">
          <mxGeometry relative="1" as="geometry">
            <mxPoint x="255" y="2382.5" as="sourcePoint" />
            <Array as="points">
              <mxPoint x="350.5" y="2382.91" />
            </Array>
            <mxPoint x="540" y="2382.9099999999994" as="targetPoint" />
          </mxGeometry>
        </mxCell>
        <mxCell id="3oUJ_5gLEvu6R0pSqBkJ-29" value="compito aggiornato" style="html=1;verticalAlign=bottom;endArrow=open;edgeStyle=elbowEdgeStyle;elbow=vertical;curved=0;rounded=0;labelBackgroundColor=none;fillColor=#f5f5f5;strokeColor=#666666;endFill=0;" parent="1" edge="1">
          <mxGeometry relative="1" as="geometry">
            <mxPoint x="540" y="2412.4999999999995" as="sourcePoint" />
            <mxPoint x="255" y="2412.4999999999995" as="targetPoint" />
          </mxGeometry>
        </mxCell>
        <mxCell id="wu5D_C5YngdK5RuBRDYH-1" value="OPT" style="shape=umlFrame;tabWidth=110;tabHeight=30;tabPosition=left;html=1;boundedLbl=1;labelInHeader=1;width=40;height=20;swimlaneFillColor=#E6E6E6;fillColor=#f6f5f4;strokeColor=#5e5c64;fillOpacity=60;fontColor=#1A1A1A;" vertex="1" parent="1">
          <mxGeometry x="200" y="2440" width="390" height="90" as="geometry" />
        </mxCell>
        <mxCell id="wu5D_C5YngdK5RuBRDYH-2" value="7.modificaDaPreparare(compito, daPreparare)" style="html=1;verticalAlign=bottom;endArrow=block;edgeStyle=elbowEdgeStyle;elbow=horizontal;curved=0;rounded=0;labelBackgroundColor=none;" edge="1" parent="1">
          <mxGeometry relative="1" as="geometry">
            <mxPoint x="255" y="2480" as="sourcePoint" />
            <Array as="points">
              <mxPoint x="350.5" y="2480.41" />
            </Array>
            <mxPoint x="540" y="2480.4099999999994" as="targetPoint" />
          </mxGeometry>
        </mxCell>
        <mxCell id="wu5D_C5YngdK5RuBRDYH-3" value="compito aggiornato" style="html=1;verticalAlign=bottom;endArrow=open;edgeStyle=elbowEdgeStyle;elbow=vertical;curved=0;rounded=0;labelBackgroundColor=none;endFill=0;dashed=1;" edge="1" parent="1">
          <mxGeometry relative="1" as="geometry">
            <mxPoint x="540" y="2509.9999999999995" as="sourcePoint" />
            <mxPoint x="255" y="2509.9999999999995" as="targetPoint" />
          </mxGeometry>
        </mxCell>
        <mxCell id="3oUJ_5gLEvu6R0pSqBkJ-30" value="Chef" style="shape=umlLifeline;participant=umlActor;perimeter=lifelinePerimeter;whiteSpace=wrap;html=1;container=1;collapsible=0;recursiveResize=0;verticalAlign=top;spacingTop=36;outlineConnect=0;labelBackgroundColor=default;" parent="1" vertex="1">
          <mxGeometry x="240" y="1340" width="25" height="1230" as="geometry" />
        </mxCell>
        <mxCell id="3oUJ_5gLEvu6R0pSqBkJ-31" value="Sistema" style="shape=umlLifeline;perimeter=lifelinePerimeter;whiteSpace=wrap;html=1;container=0;collapsible=0;recursiveResize=0;outlineConnect=0;labelBackgroundColor=none;" parent="1" vertex="1">
          <mxGeometry x="490" y="1340" width="100" height="1230" as="geometry" />
        </mxCell>
      </root>
    </mxGraphModel>
  </diagram>
</mxfile>
